<?xml version="1.0" encoding="utf-8"?>
<!-- Generator: Adobe Illustrator 19.0.0, SVG Export Plug-In . SVG Version: 6.00 Build 0)  -->
<svg version="1.1" id="レイヤー_1" xmlns="http://www.w3.org/2000/svg" xmlns:xlink="http://www.w3.org/1999/xlink" x="0px"
	 y="0px" viewBox="0 0 1306.9 411.2" style="enable-background:new 0 0 1306.9 411.2;" xml:space="preserve">
<style type="text/css">
	.st0{fill:#FFFFFF;}
</style>
<g>
	<path class="st0" d="M532,0c1,0.2,1.9,0.6,2.9,0.7c5.1,0.4,10.3,0.3,15.4,1.2c6.9,1.2,13.9,2.5,20.4,5c9.7,3.7,18.8,8.9,25.4,17.2
		c3.6,4.5,6.8,9.4,9.1,15c5.2,12.8,5.8,26,4.4,39.4c-1.1,10.9-3,21.8-4.5,32.7c-0.9,6.4-1.4,12.9-2.4,19.2
		c-0.8,5.1-2.3,10.1-3.2,15.2c-0.7,3.9-0.9,7.9-1.4,11.8c-1,7.4-2,14.7-3,22.1c-0.9,6.8-1.9,13.6-2.9,20.4
		c-1.5,10.2-2.6,20.6-4.8,30.7c-1.7,7.8-4.1,15.6-7.2,23c-2.4,5.7-6.4,10.8-9.5,16.2c-5.2,8.9-13.7,13.8-22.3,18.8
		c-10.8,6.3-22.5,9.4-34.8,9.9c-9.4,0.4-18.8,1.1-28.2,1.1c-31.7,0.1-63.5,0.1-95.2,0.1c-6.4,0-8.3-2.2-7.4-8.6
		c1-7.7,1.8-15.4,2.9-23c1.4-10,3.1-20,4.5-30.1c0.9-6.4,1.6-12.8,2.5-19.3c0.9-6.9,2-13.7,3-20.5c1.1-7.3,2.3-14.6,3.4-22
		c1.6-10.6,3.2-21.2,4.6-31.8c0.9-6.9,1.5-13.9,2.5-20.8c1.4-10.4,3-20.8,4.4-31.3c0.9-6.4,1.6-12.8,2.5-19.2
		c0.9-6.3,1.9-12.6,2.9-18.8c1.2-7.6,2.4-15.2,3.5-22.8c1.1-7.7,2-15.5,3.1-23.2c0.5-3.4,1.8-6.4,5.7-7.2c0.6-0.1,1.1-0.6,1.6-1
		c0.8,0,1.6,0,2.3,0c0.9,0.2,1.7,0.6,2.6,0.6c30.6,0,61.1,0,91.7,0c0.9,0,1.7-0.4,2.6-0.6C530,0,531,0,532,0z M473.9,250
		c0,0.2,0,0.4,0,0.5c8.3-0.6,16.6-1,24.8-1.8c8.9-0.8,16.2-5.6,22-11.9c5.9-6.3,7.5-14.9,8.9-23.2c1.1-6.2,1.4-12.5,2.3-18.7
		c0.9-7,2-13.9,3.1-20.9c1.3-8.8,2.5-17.5,3.8-26.3c0.8-5,1.9-10,2.5-15c1.4-10.2,2.7-20.5,4-30.7c1.2-9.7,3.4-19.2,2.6-29.1
		c-0.7-9.1-4.9-16-13.3-19.8c-2.9-1.3-6.2-2.8-9.3-2.9c-13.9-0.3-27.8-0.2-41.7-0.1c-1.6,0-3.4,1.1-4.9,2c-3,1.8-2.7,5-3.1,8
		c-1.4,10.2-3.1,20.4-4.5,30.6c-1.1,7.6-1.9,15.2-2.9,22.8c-0.8,5.9-1.6,11.9-2.5,17.8c-0.9,6.3-1.7,12.7-2.6,19
		c-1.5,10.3-3.2,20.5-4.8,30.8c-1.5,10.1-2.9,20.2-4.3,30.3c-1.5,10.5-3,21-4.4,31.6c-0.5,3.7,2,7.1,6.2,7
		C461.8,249.9,467.9,250,473.9,250z"/>
	<path class="st0" d="M180.4,0c1,0.2,1.9,0.6,2.9,0.6c13,0,26.1,0,39.1,0c0.7,0,1.4,0,2,0c4.6,0.2,6.7,2.7,6,7.2
		c-1.2,8.8-2.3,17.6-3.5,26.4c-1.5,10.5-3.1,21-4.5,31.6c-1,7.2-1.6,14.4-2.5,21.6c-0.8,5.8-1.9,11.6-2.8,17.4
		c-1,6.4-1.9,12.7-2.9,19.1c-1,6.8-2.1,13.7-3.1,20.5c-1,6.8-1.9,13.6-2.8,20.4c-1.8,13.6-3.5,27.2-5.3,40.8
		c-1.4,10.7-3.1,21.4-4.6,32.1c-1,7.3-1.9,14.5-3,21.8c-1.1,7.7-2.3,15.4-3.5,23.1c-0.6,3.9-1.2,7.8-1.9,11.7
		c-0.5,2.6-3.5,5.2-6.2,5.2c-16,0-31.9,0-47.9,0c-4.1,0-6.3-3.4-5.7-8c1.5-10.7,3-21.3,4.6-32c1.5-10.2,3.1-20.4,4.5-30.6
		c1.2-8.4,2-16.9,3.1-25.4c0.9-7,1.9-14,2.8-21c0.8-5.8-1.8-6.8-6.8-7.3c-1.8-0.2-3.7,0-5.5,0c-15.7,0-31.3-0.1-47,0
		c-7.5,0.1-9.4,2.7-10.3,9.4c-1.1,7.8-2.4,15.6-3.5,23.4c-0.8,5.3-1.5,10.7-2.3,16c-1.2,8.2-2.7,16.3-3.8,24.6
		c-1.4,10.1-2.5,20.1-3.9,30.2c-0.8,5.7-1.8,11.4-3.2,17c-0.6,2.7-2.9,3.8-5.8,3.8c-15.9-0.1-31.7-0.1-47.6,0
		c-2.9,0-4.2-1.8-5.8-3.5c0-2.7,0-5.5,0-8.2c0.2-0.3,0.5-0.6,0.6-0.9c1-7.8,1.9-15.7,3.1-23.5c1.6-11.3,3.4-22.6,5.1-33.9
		c0.9-6.2,2.1-12.3,3-18.5c1-7.1,1.8-14.2,2.7-21.2c0.8-6.3,1.8-12.6,2.6-18.9c0.9-6.8,1.6-13.6,2.5-20.4c1.4-10.5,2.9-21,4.5-31.5
		c1.6-11.3,3.4-22.6,5.1-34c1-6.8,2.1-13.7,3.1-20.5c0.9-6.5,1.7-13,2.6-19.5c1.4-10.4,3.1-20.8,4.3-31.3c0.7-5.9,0.5-12,8.1-13.7
		c1,0,1.9,0,2.9,0c1,0.2,1.9,0.6,2.9,0.6c13.2,0,26.5,0,39.7,0c6.7,0,8.3,1.7,7.5,8.4c0,0.4-0.1,0.8-0.2,1.1
		c-0.7,5-1.4,9.9-2.1,14.9c-0.8,6-1.3,12.1-2.2,18.1c-1.1,7.3-2.5,14.6-3.6,21.9C90.6,76.1,89.1,87,87.6,98c-1,7.5-2.1,14.9-3,22.4
		c-0.4,3.6,1.4,5.3,4.9,5.3c19.1,0,38.1,0,57.2,0.1c4.9,0,7.2-3.2,7.9-6.6c1-4.5,1.4-9.2,1.9-13.7c0.8-6.8,1.5-13.7,2.5-20.5
		c1.5-10.5,3.1-21,4.6-31.5c1-6.8,1.6-13.6,2.6-20.4c1-7.3,2.1-14.5,3.2-21.8c0.7-4.6,1.5-9.3,7.3-10.5c0.3-0.1,0.5-0.5,0.8-0.7
		C178.5,0,179.5,0,180.4,0z"/>
	<path class="st0" d="M959.4,0c4.5,2.4,4.1,6.3,3.5,10.5c-1.3,9-2.3,18-3.4,27.1c-0.8,6.7-1.6,13.5-2.5,20.2
		c-1.5,11.3-3.1,22.6-4.6,33.9c-0.4,3.1-0.9,6.1-1,9.2c0,1,1,2.6,1.8,2.9c1,0.3,2.9-0.2,3.6-1c2.3-2.8,4.2-5.8,6.2-8.8
		c4.9-7.2,9.7-14.3,14.6-21.5c4.3-6.3,8.7-12.5,13-18.8c4.9-7.4,9.6-14.9,14.5-22.3c3.9-5.9,8.1-11.7,12.1-17.6
		c1.6-2.4,3.2-4.9,4.4-7.5c2-4.2,5.2-5.7,9.8-5.7c16.3,0.1,32.7,0.1,49,0c1.3,0,2.6-0.3,3.8,0.1c1.8,0.6,4.8,1.2,5.1,2.4
		c0.6,2.3,0.4,5.4-0.8,7.4c-4.3,7.2-9.1,14.1-13.8,21c-2.5,3.7-5.5,7.1-8,10.8c-4.2,6.2-8.1,12.5-12.2,18.7c-4.7,7-9.7,13.9-14.4,21
		c-2.9,4.2-5.4,8.7-8.2,13c-5.9,8.7-11.9,17.3-17.8,26.1c-1.5,2.2-2,4.6-1.2,7.6c2.3,8.7,4,17.5,6.2,26.2c2.1,8.7,4.4,17.4,6.6,26.1
		c1.5,6,3,12.1,4.6,18.1c2.4,9.3,5.1,18.5,7.4,27.8c2.5,9.9,4.6,19.9,7.1,29.8c2.1,8.1,4.8,16,7,24c1.1,3.8,2.1,7.6,2.7,11.5
		c0.7,4.1-2.3,7.2-6.7,7.4c-4,0.1-8,0-12,0c-12.2,0-24.3,0-36.5,0c-3.6,0-5.9-1.8-6.8-5.1c-1.9-7.5-3.7-15.1-5.7-22.7
		c-2.5-9.8-5.2-19.5-7.5-29.3c-2.7-11.3-5-22.6-7.6-33.9c-0.8-3.5-2.3-6.9-3.3-10.4c-1-3.5-1.5-7.2-2.5-10.7c-0.5-2-1.3-4-2.4-5.8
		c-1.2-2-4.1-1.8-5.7,0.2c-2,2.6-3.7,5.4-5.6,8.1c-2.9,4-5.6,8.1-8.8,11.8c-5.3,6.5-8.4,13.7-9.2,22.1c-1.2,11.8-2.9,23.6-4.7,35.3
		c-1,6.5-2.7,12.9-3.8,19.4c-0.7,4-0.9,8.1-1.4,12.1c-0.2,1.7-0.3,3.6-1.1,5c-1.4,2.4-3.6,3.8-6.8,3.7c-15.5-0.1-30.9-0.1-46.4,0
		c-4.4,0-7.6-1.5-6.9-6.9c0.7-5.3,1.5-10.6,2.3-16c1-6.8,2-13.5,3-20.3c1.1-7.8,2.2-15.7,3.2-23.5c1.3-10.1,2.5-20.1,3.9-30.2
		c1.4-10.3,3.1-20.6,4.5-30.9c1.1-7.8,1.9-15.5,3.1-23.3c1.5-10.1,3.5-20.1,5-30.1c1.1-6.9,1.6-13.8,2.6-20.7c0.8-6,1.9-12,2.7-18
		c0.7-5.2,1.2-10.4,1.9-15.5c1-7.8,2.2-15.5,3.2-23.3c0.9-7.2,1.7-14.4,2.6-21.6c0.5-4.3,1.1-8.6,1.9-12.9c0.5-2.5,2.1-4.3,4.7-5
		c1.1-0.3,2.2-0.9,3.3-1.4c0.8,0,1.6,0,2.3,0c0.7,0.2,1.3,0.6,2,0.6c12.9,0,25.7,0,38.6,0c0.7,0,1.3-0.4,2-0.6
		C957.1,0,958.3,0,959.4,0z"/>
	<path class="st0" d="M351.5,0c5.5,2.3,4.9,6.5,4.1,11.3c-1.6,9.7-2.9,19.4-4.2,29.2c-1.8,13.2-3.5,26.4-5.3,39.7
		c-1.5,10.5-3.1,21-4.6,31.6c-1.1,7.7-1.8,15.3-3,23c-1.4,9.3-3.2,18.6-4.7,27.9c-1.1,7.2-1.9,14.5-2.9,21.8
		c-2.1,15.3-4.4,30.6-6.4,45.9c-1.5,11.7-2.7,23.5-4.3,35.2c-0.8,5.7-2.2,11.3-3.2,17c-0.6,3.3-1,6.7-1.3,10
		c-0.3,4.7-4.2,7.2-8.5,7.2c-14.6-0.2-29.2-0.3-43.8,0c-6.2,0.1-7.7-4.3-7.1-8.7c1-7.9,1.9-15.7,2.9-23.6c1-7.6,2.2-15.1,3.2-22.7
		c1.9-13.8,3.6-27.6,5.5-41.4c1.2-9.1,2.6-18.1,4-27.2c1.1-7.6,2.3-15.2,3.5-22.8c1-6.1,2-12.1,2.9-18.2c1-7,1.8-14,2.7-21
		c1.2-9.1,2.4-18.2,3.6-27.3c1.5-11,3.2-22,4.7-33c0.9-6.6,1.5-13.2,2.5-19.8c0.9-6,2.1-11.9,3.1-17.9c0.4-2.2,0.5-4.4,0.7-6.6
		c0.4-4.6,2.5-7.8,7.3-8.8c0.2,0,0.3-0.4,0.5-0.6c0.8,0,1.6,0,2.3,0c0.7,0.2,1.3,0.6,2,0.6c12.9,0,25.7,0,38.6,0
		c0.7,0,1.3-0.4,2-0.6C349.6,0,350.6,0,351.5,0z"/>
	<path class="st0" d="M1252.3,299.5c-8.1,0-16.2,0-24.2,0c-4.3,0-5.5-1.4-5.9-5.7c-1-12.1-2.2-24.3-3.4-36.4c-0.3-2.9-2.1-4-4.7-4
		c-14.8,0-29.6,0-44.4,0c-3.7,0-7,3.1-8.3,7.1c-2.4,7.6-5,15.2-7.5,22.7c-1.2,3.5-2.6,7-3.7,10.5c-1.2,3.5-4.1,5.8-7.8,5.8
		c-17.2,0-34.4-0.1-51.7,0.1c-5.8,0.1-7.5-3.8-5.4-8.4c2-4.1,3.3-8.6,4.9-12.9c2.9-7.6,6-15.2,8.9-22.8c2.1-5.7,3.7-11.6,5.9-17.2
		c2.2-5.7,4.8-11.3,7.1-16.9c1.6-3.8,3-7.7,4.4-11.5c2-5.4,3.9-10.9,5.9-16.3c1.6-4.4,3-8.7,4.7-13.1c1.7-4.3,3.6-8.4,5.4-12.6
		c2.1-5.3,4.2-10.5,6.2-15.9c2-5.4,3.9-10.9,5.9-16.3c2.3-6.1,4.7-12.2,7.1-18.3c3.3-8.5,6.7-17,10-25.5c2.3-5.9,4.2-12,6.5-17.9
		c2.1-5.2,4.6-10.2,6.7-15.5c2.4-6,4.4-12.1,6.6-18.2c1.7-4.7,3.4-9.4,5.3-14.1c2.8-7,5.9-13.9,8.6-20.9c1.5-3.9,4.3-4.9,8-4.9
		c10.9,0,21.8,0,32.7,0c5,0,9.9-0.2,14.9,0.1c5.7,0.3,6,1,6.3,5.8c0.5,7.2,1.1,14.5,1.7,21.7c1.1,13.4,2.4,26.8,3.5,40.2
		c1,11.9,1.9,23.7,3,35.6c1,11.9,2.2,23.9,3.3,35.8c0.7,7.9,1.2,15.8,1.9,23.7c0.6,6.2,1.3,12.5,2,18.7c0.3,3.4,0.6,6.7,0.9,10.1
		c1,10.6,2.1,21.1,3.1,31.7c0.8,8.2,1.5,16.4,2.2,24.6c1.1,12.1,2.1,24.3,3.1,36.4c0.3,3.4,0.4,6.8,0.4,10.2c0,3.1-1.4,4.4-4.5,4.4
		C1269.3,299.6,1260.8,299.5,1252.3,299.5z M1197,203.8c3.3,0,6.6,0.1,9.9,0c6.3-0.1,9.5-3.3,9.5-9.5c-0.1-7.4-0.8-14.9-1.1-22.3
		c-0.4-10.1-0.7-20.1-1.1-30.2c-0.1-3.4-2.5-5.9-5.7-6.3c-2.6-0.3-5.4,1.5-6.5,4.3c-3.4,9-6.8,17.9-10.1,27
		c-3.4,9.3-6.8,18.6-9.7,28.1c-1.5,5.1-1.5,9.2,6.3,8.9C1191.3,203.7,1194.2,203.8,1197,203.8z"/>
	<path class="st0" d="M786.3,299.5c-8.3,0-16.5,0-24.8,0c-3.4,0-4.9-1.5-5.2-4.8c-0.8-10.1-1.5-20.1-2.4-30.2
		c-0.2-2.7-0.4-5.5-1.3-8c-0.5-1.4-2.6-3-3.9-3.1c-15.2-0.2-30.4-0.2-45.5-0.1c-3.2,0-6.6,3.6-7.7,7c-2.7,8.3-5.6,16.6-8.4,24.9
		c-0.8,2.5-1.5,5-2.2,7.5c-1.1,4.2-4.1,6.7-8.5,6.7c-17,0-34.1,0-51.1,0c-1.2,0-2.4,0-3.5-0.4c-3.3-1.2-4-4.1-2.4-7.6
		c2-4.5,3.8-9.1,5.6-13.8c2.7-7.3,5.4-14.6,8-22c2.1-5.9,4-11.9,6.1-17.8c0.6-1.6,1.7-3,2.3-4.6c3.2-8.4,6.3-16.9,9.4-25.4
		c1.9-5.1,3.9-10.1,5.9-15.1c3-7.7,6.1-15.3,9.1-23c3.4-8.8,6.6-17.6,10-26.4c4.4-11.3,9.1-22.5,13.4-33.8
		c3.9-10.1,7.3-20.3,11.1-30.4c2.8-7.3,6.2-14.4,9.1-21.7c2.1-5.3,3.7-10.7,5.8-16c2.9-7.3,6.1-14.5,9-21.8
		c1.6-3.9,3.3-7.8,4.4-11.9c1.8-6.1,3.1-7.4,9.5-7.4c15.3,0,30.6,0,45.8,0c6.3,0,6.8,0.5,7.3,6.6c1,12.4,1.9,24.7,2.9,37.1
		c1.1,13.8,2.3,27.6,3.5,41.4c1.2,13.5,2.3,27,3.5,40.5c0.8,8.7,1.4,17.3,2.3,26c1.2,10.8,2.7,21.6,3.8,32.4
		c0.8,7.8,1.2,15.6,1.9,23.4c1.1,12.4,2.3,24.8,3.3,37.3c0.7,8.3,1.3,16.6,1.9,24.9c0.6,7.7,1.4,15.4,1.8,23.2
		c0.3,5.1-0.9,6.2-6,6.2C802.2,299.6,794.2,299.6,786.3,299.5C786.3,299.6,786.3,299.5,786.3,299.5z M731.1,203.8
		c3.5,0,7,0.1,10.5,0c5.4-0.1,8.8-3.5,8.8-9c0-4.2-0.4-8.3-0.6-12.5c-0.5-13.3-1-26.5-1.3-39.8c-0.1-5.1-3.6-8-8.6-6.6
		c-3.8,1-4.3,4.4-5.4,7.3c-2.1,5.8-3.7,11.8-5.9,17.6c-4.1,11.3-8.5,22.5-12.6,33.7c-2.3,6.4-0.2,9.2,6.5,9.2
		C725.4,203.8,728.2,203.8,731.1,203.8z"/>
	<path class="st0" d="M1041,361.9c0.1,0.2,0.3,0.8,0.5,1.4c1.5,4.3,1.1,5.4-3.2,6.9c-1.9,0.6-2.3,1.6-2.4,3.3
		c-1,9.9-3.6,11.1-12.6,12.5c-0.9,0.2-2-0.2-2.9,0.1c-0.9,0.3-1.7,1-2.5,1.6c0.8,0.8,1.5,2,2.5,2.3c1.7,0.5,3.6,0.3,5.4,0.7
		c7.3,1.6,10,8.6,6.8,14.9c-2,3.9-5.5,5.2-9.3,5.5c-4.1,0.3-8.2,0.4-12.2-1.5c-3.4-1.6-4.4-4.5-5.4-7.6c-0.2-0.5,0.5-1.7,0.7-1.7
		c2.7,0.1,5.6-0.1,8,0.9c2,0.8,7.2,2.2,9.1,1c0.7-0.5,1.3-1.5,1.3-2.3c0-0.6-0.9-1.5-1.5-1.7c-2-0.5-4.1-0.9-6.2-1
		c-4.8-0.2-9.4-6.5-6.9-10.5c2.5-3.8,1.3-7,0.4-10.5c-0.8-3.5-0.5-6.8,1.5-9.9c3-4.4,9.4-6.6,14.7-5c2.1,0.6,4.2,1.7,6.3,1.8
		C1035.6,363.2,1038.2,362.4,1041,361.9z M1018.4,373.4c0,2.2,2.3,4.9,4.3,5c2.4,0.1,5-2.5,5.1-4.9c0-2.5-2-4.4-4.7-4.4
		C1020.4,369.1,1018.4,370.9,1018.4,373.4z"/>
	<path class="st0" d="M446,348.7c3.9,0.6,7.8,1,11.6,1.7c3.6,0.7,6.3,4,6,7.5c-0.5,5.8-1.4,11.6-2.2,17.3c-0.4,2.8-0.7,5.7-1.3,8.5
		c-1.8,8.4-5.9,10.5-13.7,11c-4.7,0.3-9.3-0.1-14,0.1c-2.3,0.1-2.9-1-2.7-3c0.8-6.3,1.6-12.7,2.5-19c1-6.9,2.3-13.7,3.2-20.6
		c0.3-2.3,1.1-3.2,3.4-3c2.3,0.2,4.7,0,7,0C446,349,446,348.8,446,348.7z M443.9,387.1c5,0.7,8.2-2.4,8.7-7.8
		c0.4-5.4,1.5-10.8,2.2-16.2c0.7-4.8-1.1-7.2-5.8-7c-0.8,0-1.6,0.1-2.3,0c-2.2-0.3-3.2,0.9-3.4,2.9c-1,7.7-2.1,15.3-2.9,23
		C439.8,387.1,440,387.1,443.9,387.1z"/>
	<path class="st0" d="M1240.3,385.5c-1.1,5.7-5.1,9.5-10.6,9.8c-3.4,0.2-7,0-10.4-0.6c-3.8-0.7-7.2-5.6-6.4-11.4
		c0.5-3.6,1.2-7.1,1.7-10.7c1.2-9.4,10.7-12.7,18.3-11.3c5.7,1.1,8.9,4.4,9.5,9.8c0.3,2.8-0.4,5.8-1.3,8.6c-0.3,0.9-2.5,1.6-3.9,1.7
		c-3.6,0.2-7.2-0.1-10.8,0.2c-1.4,0.1-3.1,0.6-3.8,1.6c-0.6,0.7-0.3,3.1,0.4,3.6c1.4,0.9,3.3,1.1,5,1.4c0.4,0.1,0.9-0.3,1.3-0.6
		C1232.4,384.3,1236.3,385.6,1240.3,385.5z M1228.1,375.5c0.7,0,1.4,0.1,2,0c1-0.3,2.6-0.6,2.7-1.1c0.3-1.3,0.2-2.9-0.5-4
		c-1.5-2.2-4.7-2.3-6.9-0.1c-1,1-1.3,2.7-2,4.1c1.2,0.4,2.3,0.8,3.5,1.1C1227.3,375.6,1227.7,375.5,1228.1,375.5z"/>
	<path class="st0" d="M515,373.1c-3,0-5.6,0-8.2,0c-1.4-3.9-4.1-5.6-7.6-4.4c-0.9,0.3-2.2,1.7-2.1,2.5c0.1,1,1.3,2.2,2.3,2.5
		c2.7,1,5.6,1.5,8.4,2.4c5.6,1.7,6.7,6.7,6,11.5c-0.5,4-4.3,7.3-9.1,7.8c-4.7,0.6-9.2,0.5-13.6-1.6c-3.2-1.5-5.6-5.1-5.9-8.5
		c0-0.5,0.1-1.3,0.2-1.3c2.3-0.3,4.7-0.7,7-0.7c0.7,0,1.8,0.7,2.1,1.4c1.4,3.3,5.7,4.5,9.5,2.5c0.5-0.3,1-1.4,0.9-1.9
		c-0.3-0.8-1.1-1.6-1.9-1.9c-2.9-1-5.8-1.7-8.7-2.5c-4.1-1.1-6.6-3.9-7.2-7.9c-0.7-4.6,1.6-8.1,6.1-10.3c6-3,12-2.5,17.5,0.9
		C513.8,365.4,515.4,368.9,515,373.1z"/>
	<path class="st0" d="M921.5,373c-2.9,0-5.6,0-8.3,0c-1.7-4-3.5-5.3-7.1-4.4c-1,0.2-1.8,1.6-2.7,2.4c0.9,0.9,1.6,2.3,2.7,2.6
		c2.8,1,5.9,1.5,8.7,2.5c3.9,1.4,6.5,6,5.4,10.5c-1.1,4.6-2.5,7.2-7.5,8.2c-5.3,1.1-10.3,1.1-15.3-1.2c-3.1-1.4-5.7-5.1-5.7-8.6
		c0-0.7,1.1-1.8,1.8-1.9c1.8-0.3,3.7-0.2,5.5,0c0.7,0.1,1.6,0.8,2,1.5c1.6,3.1,5.3,4.4,8.4,2.6c0.7-0.4,1.4-1.4,1.4-2.1
		c0-0.7-0.9-1.7-1.6-1.9c-3.1-1.1-6.4-1.8-9.5-2.9c-3.4-1.2-5.7-3.7-6.2-7.2c-0.7-4.2,0.9-7.7,4.6-9.8c6.2-3.7,12.7-3.5,18.8,0.1
		C920.2,365.3,921.6,368.9,921.5,373z"/>
	<path class="st0" d="M837.3,385.6c-0.7,5.3-4.4,9-10,9.7c-3.5,0.5-7.1,0.5-10.6-0.9c-4.3-1.7-7-4.7-6.7-9.2
		c0.4-4.9,1.1-9.9,2.3-14.7c1.3-5.5,7.1-9,12-9.6c2.1-0.2,4.3-0.1,6.3,0.4c7,1.7,9.8,6.2,8.7,13.2c-0.1,0.8,0,1.6-0.1,2.3
		c-0.2,2.7-1.9,4.4-4.6,4.5c-3.6,0.1-7.2-0.1-10.8,0.1c-1.5,0.1-3.4,0.6-4.2,1.6c-0.6,0.7-0.1,3.2,0.7,3.9c1.4,1.2,3.5,2.3,5.5,0.8
		C829.3,385.1,833.2,385.1,837.3,385.6z M825.7,375.5c1,0,1.9-0.1,2.9,0c1.7,0.1,2.3-0.6,2.5-2.3c0.2-2.3-1.1-3.3-2.9-4
		c-2.4-0.9-4.5-0.1-6,1.7c-0.8,0.9-0.8,2.5-1.1,3.8c1.1,0.3,2.2,0.6,3.3,0.9C824.7,375.6,825.2,375.5,825.7,375.5z"/>
	<path class="st0" d="M649.3,385.5c-1.4,6.7-4.6,9.6-11,9.8c-2.7,0.1-5.4-0.2-8.1-0.6c-5-0.6-9.5-6.5-7.9-12.3
		c1-3.6,0.9-7.4,1.9-10.9c1.6-6,7.5-11.1,13.5-10.6c2.6,0.2,5.4,0.3,7.8,1.4c6,2.6,8.7,10.9,5.3,16.4c-0.8,1.3-2.9,2.3-4.5,2.5
		c-3.5,0.4-7,0.1-10.5,0.1c-1.7,0-3.7-0.3-4.3,1.9c-0.3,1,0,2.7,0.7,3.4c1.5,1.2,3.2,2.5,5.5,1.4c0.3-0.2,0.8-0.2,1-0.5
		C641.9,384.5,645.6,385.4,649.3,385.5z M637.8,375.5c0.8,0,1.6,0.2,2.3,0c1-0.3,2.4-0.6,2.7-1.3c0.4-0.9,0.2-2.4-0.4-3.3
		c-1.4-2.3-5-3-7.7-0.6c-1,0.9-1.2,2.8-1.7,4.3c1.1,0.3,2.2,0.7,3.3,1C636.9,375.6,637.4,375.5,637.8,375.5z"/>
	<path class="st0" d="M1170.2,385.4c-2.2,6.9-6.8,9.5-13.3,10.3c-7.1,0.8-12.5-2.4-14.2-9.4c-0.3-1.2-0.1-2.6,0.1-3.8
		c0.5-4.1,1-8.1,1.8-12.2c0.9-4.6,6.9-9.1,12.1-9.5c3.8-0.3,7.4,0.5,10.8,2.2c3.2,1.6,5.3,7.4,4.4,11.9c-1.3,7-2.6,6.3-8.2,6.3
		c-3.1,0-6.2-0.2-9.3,0.1c-1.2,0.1-3.3,1.5-3.2,2.3c0,1.3,1.1,3,2.3,3.7c2.3,1.5,4.7,1.3,6.7-1c0.5-0.6,1.5-1,2.2-1
		C1165,385.3,1167.5,385.4,1170.2,385.4z M1152.2,373.2c1.9,2,8.3,3.1,9.6,2c0.7-0.6,1.3-1.6,1.3-2.4c-0.1-2.7-3.4-4.9-5.9-3.7
		C1155.4,370.1,1154,371.7,1152.2,373.2z"/>
	<path class="st0" d="M774.9,360.9c5-0.6,9.1,1.8,12,6.6c0.6,0.9,0.9,2.2,0.9,3.3c-0.3,7.4-0.4,15-5.6,21.2
		c-0.9,1.1-2.1,2.3-3.5,2.7c-5.5,1.9-11,1.7-16.3-1c-2.7-1.4-5.1-6.9-4.4-10.6c0.6-3.6,1.4-7.3,2.3-10.9
		C762.1,364.5,766.7,360.9,774.9,360.9z M771.7,387.1c2.9,0,5.8-1.7,6.1-3.8c0.5-3,0.8-6,1.2-9c0.3-2.6-0.7-4.1-3.3-4.9
		c-2.6-0.8-5-0.5-5.9,1.9c-1.3,3.7-2,7.6-2.4,11.5C767.1,386,768.6,387.1,771.7,387.1z"/>
	<path class="st0" d="M573.6,360.9c5.3-0.5,9.3,2.2,12.1,6.9c0.8,1.4,1.2,3.3,1.1,4.9c-0.5,5.7-0.9,11.4-3.9,16.5
		c-1.7,2.9-3.8,5.1-7.5,5.9c-4.8,1-9.2,1.1-13.4-1.5c-4.3-2.6-5.9-6.9-4.9-11.7c0.7-3.3,1-6.6,1.8-9.8
		C560.7,364.6,565.4,360.6,573.6,360.9z M570.3,387.1c3.1,0,5.6-1.4,6-3.7c0.5-3,0.8-6.1,1.2-9.1c0.4-2.8-1-4.6-3.5-5.2
		c-2.4-0.5-5.1-0.2-6,2.6c-1,3.5-1.8,7.2-2.2,10.8C565.6,386,567,387.1,570.3,387.1z"/>
	<path class="st0" d="M712.2,362.1c-1.5,3.6-2.7,6.7-4.1,9.8c-2,4.2-4.2,8.3-6.2,12.4c-3,6.2-5.6,12.6-8.9,18.7
		c-3.2,5.8-5.7,7.2-13.4,6.9c0-1.8-0.3-3.6,0.1-5.4c0.2-1,1.5-1.9,2.4-2.7c1.2-1.1,2.9-1.9,3.7-3.2c2.8-4.5,3.3-9.4,1.9-14.7
		c-1.4-5.2-1.9-10.7-2.9-16c0-0.3,0-0.6,0-0.9c0-1.5-0.3-4.3,0.1-4.4c2-0.6,4.2-0.6,6.3-0.4c0.7,0.1,1.5,1.6,1.8,2.5
		c0.8,3,1.2,6.1,1.9,9.2c0.2,0.8,0.8,1.4,1.7,2.9c1.5-3.4,2.7-6.2,3.9-9c0.5-1.2,0.7-2.6,1.4-3.7c0.5-0.9,1.6-1.9,2.5-2
		C706.9,361.9,709.3,362.1,712.2,362.1z"/>
	<path class="st0" d="M1100.6,394.8c-4.9,0-4.9,0-4-4.9c0.9-5,1.6-10,2.4-15c0.5-3.3-1-5.3-4-5.8c-2.5-0.4-4.7,1.2-5.3,4.4
		c-0.9,4.9-1.6,9.8-2.4,14.7c-0.3,1.8-0.6,3.6-1.3,5.2c-0.3,0.6-1.4,1.2-2.3,1.3c-6,0.8-6.9-0.5-5.8-7c1.3-7.8,2.4-15.6,3.5-23.5
		c0.3-2,2.9-3.4,5.5-1.9c2.6,1.4,4.3,0.3,6.4-0.6c4-1.8,8.2-1.2,11.4,1.4c3,2.5,4.2,6.1,3.3,10.3c-1,4.8-1.4,9.8-2,14.7
		c-0.2,1.5-0.4,3-0.7,4.5C1104.7,395.3,1102.5,394.8,1100.6,394.8z"/>
	<path class="st0" d="M983.1,363.7c4.3-3,8.9-4.1,13.8-1.7c2.8,1.3,5.6,6.5,5.1,9.6c-1,6.7-1.9,13.4-2.9,20.1c-0.3,1.9-1,3.3-3.3,3
		c-0.3,0-0.6,0-0.9,0c-4.8,0-5.3-0.9-4.5-5.7c0.9-5.2,1.4-10.4,2.2-15.6c0.5-2.9-1.5-3.9-3.5-4.3c-2.2-0.4-4.6,0-5.4,2.6
		c-0.7,2.3-1.2,4.8-1.6,7.2c-0.7,4.4-1.1,8.9-1.9,13.3c-0.2,0.9-1.2,2.1-2,2.3c-1.8,0.3-3.7,0.3-5.5,0c-0.7-0.1-1.7-1.5-1.6-2.1
		c1.2-8.7,2.4-17.4,3.8-26c0.3-1.6-0.9-4.2,2-4.4c2-0.1,4.1,0.4,6.2,0.7C983.2,363.1,983.1,363.4,983.1,363.7z"/>
	<path class="st0" d="M549.4,383.1c-0.5,7.8-5.2,11.4-11.9,12.2c-3.1,0.4-6.3-0.1-9.5-0.6c-4.2-0.5-7.6-7.9-6.9-11.2
		c0.9-4.1,1.2-8.3,2.1-12.4c1.2-5.9,6.1-10.1,12.2-10.2c2.7,0,5.5,0.5,8.2,1.1c4.6,0.9,6.7,5.5,7.1,9.6c0,0.4,0,1-0.3,1.4
		c-1.2,1.6-7.9,0.7-9.2-0.8c-1.1-1.3-2.9-2.8-4.5-2.9c-2.4-0.1-4.5,1-4.8,4.2c-0.3,3.1-1.1,6.2-1.7,9.3c-0.4,2.2,1.2,3.8,2.8,4.2
		c1.7,0.4,4.7,0.1,5.5-1c1.9-2.7,4.1-3.1,6.9-2.8C546.7,383.2,547.9,383.1,549.4,383.1z"/>
	<path class="st0" d="M1277,382.9c0.4,5.8-5.8,12.1-11.8,12.4c-2.8,0.1-5.6,0-8.3-0.5c-5.8-1.2-9.1-6.9-7.8-12.6
		c0.7-3.3,1.3-6.5,1.7-9.8c1-7,5.4-10.5,11.3-11.3c6-0.9,11.9,0.8,14.9,5.9c0.4,0.7,0.8,1.5,1.1,2.3c1.1,3.5,0.3,4.6-3.4,4.6
		c-1.1,0-2.1,0-3.2,0c-1.4,0.1-2.4-0.1-2.7-1.9c-0.4-2.2-2.3-2.9-4.1-2.7c-2.4,0.2-5,0.9-5.6,3.7c-0.7,3.3-0.9,6.6-1.3,9.9
		c-0.2,1.8,0.1,3.6,2.1,3.8c2.1,0.2,5.7,0.6,6.1-0.4C1268.8,381,1273.2,383.8,1277,382.9z"/>
	<path class="st0" d="M873.1,362c-2.7,4.1-4.5,8.1-7.4,10.9c-4.5,4.4-2.3,8.3-0.4,12.6c1,2.2,2.1,4.5,3.2,6.7c1,1.9,0.2,2.5-1.6,2.6
		c-1.3,0-2.5-0.1-3.8,0c-2,0.1-3.2-0.5-3.7-2.6c-0.4-1.7-1.3-3.3-2.2-4.9c-0.9-1.8-2.3-1.8-3.4-0.3c-1.1,1.5-2.2,3.1-2.9,4.9
		c-1,2.3-2.4,3.3-4.9,2.9c-1.8-0.3-3.7-0.5-5.5-0.8c0.9-1.6,1.8-3.2,2.7-4.7c2.4-3.8,5-7.6,7.3-11.5c0.4-0.7,0.2-2.1-0.2-3
		c-1.3-3.2-2.9-6.4-4.4-9.6c-0.9-2-0.4-3,2-3.1c6-0.2,6.8,0.2,8.7,5.5c0.6,1.7,1.7,2,2.9,0.6c0.3-0.3,0.6-0.8,0.7-1.2
		c1.6-4.5,4.9-5.5,9.2-4.8C870.4,362.2,871.3,362,873.1,362z"/>
	<path class="st0" d="M929.6,383.7c0.4-3.5,0.6-7.5,1.4-11.4c0.5-2.4-0.5-2.8-2.3-3.2c-0.9-0.2-2.4-0.9-2.5-1.5
		c-0.3-3.5,0.8-5.3,2.9-5.5c3.5-0.2,3.9-0.6,4-4.1c0.1-4.4,0.4-4.7,4.6-4.7c0.1,0,0.2,0,0.3,0c5.2,0,5.2,0,4.5,5.1
		c-0.5,3.4-0.3,3.7,3.3,3.7c2.2,0,4-0.1,3.8,3.1c-0.3,3.3-0.7,4-4.1,4c-4.4,0-4.5,0-5.2,4.3c-0.5,2.6-0.8,5.3-1.2,7.9
		c-0.3,2.7,1.8,5.3,4.3,5.9c0.7,0.1,1.9,0.7,1.8,0.9c-0.3,2.4-0.8,4.8-1.3,7.2c-0.1,0.3-0.8,0.6-1.2,0.5c-2-0.4-4.1-0.7-6.1-1.4
		C931.9,392.8,929.6,389.4,929.6,383.7z"/>
	<path class="st0" d="M1114,369.1c0.3-2.2,0.3-4.1,0.9-5.9c0.2-0.6,1.7-1.1,2.6-1.1c2.1,0.1,3.4-0.3,3.2-2.9
		c-0.1-1.3,0.1-2.7,0.6-3.9c0.3-0.8,1.3-1.9,2.1-1.9c2.3-0.3,4.6-0.1,7.2-0.1c-0.1,1.9,0,3.5-0.3,5.1c-0.7,3.3-0.5,3.6,3,3.7
		c1.4,0,2.9,0.4,4.2,0.6c0,0.7,0,0.9,0,1.1c-0.5,1.7-0.5,4-1.6,4.9c-1.1,0.9-3.4,0.1-5.1,0.4c-0.9,0.2-2.3,1-2.5,1.8
		c-0.6,3.4-1.1,6.8-1.3,10.2c-0.2,3.9,1.5,5.7,5.9,6.2c-0.1,2.2,0,4.4-0.4,6.6c-0.1,0.7-1.4,1.8-1.9,1.7c-4.6-0.7-9.9-0.7-11.9-6
		c-1-2.8-1-6.2-0.9-9.2c0.1-3.1,1-6.2,1.3-9.3c0.1-0.6-1.2-1.6-2-1.9C1116.4,368.8,1115.4,369.1,1114,369.1z"/>
	<path class="st0" d="M1295.8,353.3c0.9,0,1.9-0.3,2.6,0.1c0.6,0.3,1.1,1.2,1.4,2c0.1,0.3-0.3,0.9-0.4,1.3c-0.9,5.2-0.9,5.2,4.5,5.4
		c1.4,0.1,3.6,0.1,2.9,2c-0.7,1.7,1.3,5.1-3,5.1c-5.6-0.1-5.7,0.1-6.8,5.9c-0.5,2.7-0.7,5.6-0.5,8.4c0.1,2.1,1.7,3.5,4,3.8
		c0.7,0.1,1.6,1,1.7,1.7c0.3,1.2,0.2,2.5-0.1,3.8c-0.4,2-1.4,3-3.9,2.8c-5.2-0.6-9.2-2.8-11.2-7.6c-0.7-1.7-0.6-3.8-0.4-5.7
		c0.4-3.4,0.9-6.8,1.8-10.1c0.7-2.5-0.5-2.9-2.4-3c-1.5-0.1-3.5,0.1-2.8-2c0.6-1.8-0.7-5.3,3.4-5.1c3.2,0.2,4-0.7,4.1-3.8
		C1290.7,353.5,1290.9,353.3,1295.8,353.3z"/>
	<path class="st0" d="M746.5,353.3c-0.3,2.3-0.3,4.1-0.9,5.8c-0.7,2.2,0.3,2.8,2.1,2.9c0.3,0,0.6,0,0.9,0c5,0.1,5.7,0.9,4,5.7
		c-0.2,0.6-1.2,1.1-1.9,1.2c-2.1,0.3-4.7-0.2-6.1,0.9c-1.2,0.9-1,3.7-1.3,5.6c-0.3,2.7-0.9,5.5-0.4,8c0.3,1.4,2.3,3.1,3.8,3.4
		c2.2,0.4,2.5,1.3,2.4,3.1c-0.2,5.2-4.3,7-9.6,4.2c-5.2-2.7-7.2-7-6.2-12.8c0.6-3.2,1.2-6.4,1.7-9.6c0.3-2-0.9-2.7-2.8-2.9
		c-1-0.1-2.8-0.9-2.8-1.4c-0.2-3.5,1.1-5.7,3.3-5.5c3,0.2,4.1-0.9,4.1-4c0.1-4.8,0.4-4.8,5.2-4.8
		C743.5,353.3,744.8,353.3,746.5,353.3z"/>
	<path class="st0" d="M604.1,376.8c1.8-4.2,3.5-7.7,4.6-11.3c0.9-2.7,2.2-3.8,5-3.5c1.7,0.2,3.5,0,5.7,0c-1.2,2.9-2.1,5.5-3.2,7.9
		c-3.6,7.7-7.2,15.4-10.8,23c-1.2,2.6-3.6,1.8-5.6,1.7c-1-0.1-2.6-1.2-2.8-2.1c-1.2-5-2.1-10-3-15.1c-0.8-4.3-1.5-8.6-2.2-12.9
		c-0.1-0.6,0.1-1.8,0.2-1.9c2.3-0.3,4.7-0.7,7.1-0.5c0.8,0.1,1.7,1.9,1.9,3c0.6,2.9,0.8,5.8,1.3,8.7
		C602.3,374.8,603.1,375.5,604.1,376.8z"/>
	<path class="st0" d="M1210.6,345.1c-0.5,3.8-0.9,7.4-1.4,10.9c-1.1,7.1-2.2,14.1-3.3,21.1c-0.8,5.3-1.5,10.6-2.5,15.8
		c-0.1,0.7-1.3,1.6-2.1,1.7c-6,0.6-6.8-0.7-5.7-6.5c1-4.9,1.4-9.8,2-14.7c0.6-4.7,1.3-9.4,2-14.2c0.5-3.9,1.2-7.7,1.5-11.6
		c0.1-1.8,0.6-2.7,2.5-2.6C1205.9,345.2,1208.1,345.1,1210.6,345.1z"/>
	<path class="st0" d="M1193,345.1c-1.4,10.4-2.7,20.4-4.1,30.4c-0.7,5.4-1.6,10.8-2.3,16.1c-0.3,2.1-1.1,3.4-3.5,3.1
		c-0.9-0.1-1.7,0-2.6,0c-2.1,0-3.3-0.3-2.8-3.2c1.6-8.5,2.9-17.1,4.1-25.7c0.9-6.2,1.6-12.5,2.5-18.7c0.1-0.8,1.1-1.9,1.7-2
		C1188.3,345,1190.6,345.1,1193,345.1z"/>
	<path class="st0" d="M661.9,395.4c-4.2-0.6-4.4-0.7-3.8-5.6c1-8.2,2.1-16.3,3.3-24.4c0.5-3.3,3.1-4.6,6.1-2.8
		c2.1,1.2,3.6,1,5.3-0.3c0.4-0.3,1-0.7,1.5-0.7c1.6-0.2,3.2-0.2,4.7-0.3c0,1.5,0,2.9,0.1,4.4c0.3,3.4-1.1,4.6-4.6,5
		c-4.1,0.5-5.5,3.3-6.1,8.4c-0.5,4.7-1.3,9.4-2.5,14C665.8,394.1,663.4,394.6,661.9,395.4z"/>
	<path class="st0" d="M875.1,394.8c0.3-3.4,0.5-6.7,0.9-9.9c0.7-5.5,1.5-11,2.3-16.5c0.2-1.5,0.3-3.1,0.6-4.5
		c0.1-0.6,0.8-1.5,1.3-1.6c2.3-0.2,4.7-0.3,6.9,0c0.5,0.1,1.2,2.1,1,3.1c-1.2,9-2.6,17.9-4.1,26.9c-0.2,0.9-1.5,2.2-2.5,2.4
		C879.6,395,877.7,394.8,875.1,394.8z"/>
	<path class="st0" d="M468.4,394.8c0.9-6.5,1.7-12.6,2.5-18.6c0.5-3.8,1.2-7.6,1.4-11.4c0.1-2,1-2.6,2.8-2.8c6.4-0.4,6.8-0.4,6,5.8
		c-1,8.2-2.7,16.3-3.9,24.5c-0.3,1.9-1.2,2.4-2.8,2.4C472.7,394.8,471,394.8,468.4,394.8z"/>
	<path class="st0" d="M963.2,362c0.9,0,1.9-0.3,2.6,0.1c0.8,0.4,1.9,1.5,1.8,2.2c-1.4,9.4-3,18.8-4.6,28.2c-0.2,0.9-1.4,1.5-2.2,2.3
		c-0.1,0-0.2,0-0.3,0c-5.6-0.2-7.1,1.7-5.8-6.2c1.3-7.7,2.1-15.5,3-23.3C958,362.4,958.4,362,963.2,362z"/>
	<path class="st0" d="M1073.8,362.4c-1,6.6-1.9,12.2-2.8,17.9c-0.7,4.3-1.5,8.6-2.4,12.9c-0.1,0.6-1.2,1.6-1.9,1.6
		c-6.1,0-6.9,1.3-5.7-5.9c1.3-7.8,2-15.7,3-23.6c0.3-2.1,1.1-3.4,3.5-3.2C1069.6,362.2,1071.7,362.3,1073.8,362.4z"/>
	<path class="st0" d="M1070.2,346.3c3,0,5.4,2.6,5.5,5.8c0,2.5-3.1,5.4-5.6,5.3c-2.7-0.1-4.9-2.8-4.9-5.9
		C1065.2,348.8,1067.7,346.2,1070.2,346.3z"/>
	<path class="st0" d="M958.8,351.7c0-3,2.5-5.6,5.4-5.4c2.5,0.1,5.1,2.9,5.1,5.6c0,2.6-2.6,5.4-5.2,5.5
		C961,357.4,958.8,355.1,958.8,351.7z"/>
	<path class="st0" d="M483.5,351.8c0,2.7-2.3,5.4-4.7,5.5c-2.7,0.1-5.7-2.6-5.8-5.1c-0.1-3.1,2.6-6,5.6-5.9
		C481.2,346.3,483.5,348.9,483.5,351.8z"/>
	<path class="st0" d="M890,352.2c0,2.5-2.5,5.2-4.8,5.1c-2.9-0.1-5.8-2.8-5.7-5.6c0.1-2.9,2.8-5.5,5.8-5.5
		C887.7,346.3,890,349.1,890,352.2z"/>
</g>
</svg>
